<svg width="950" height="440" viewBox="-42 48 390 100" fill="none" xmlns="http://www.w3.org/2000/svg">
<g clip-path="url(#clip0)">
<path d="M360 -58H0V302H360V-58Z" fill="white"/>
<path d="M214.5 168.227C205.395 173.588 192.791 179.3 191.357 179.942L180.001 185L168.644 179.942C167.222 179.311 154.653 173.612 145.5 168.227C137.926 163.766 130.936 158.776 124.886 152.388C121.086 148.323 111 137.531 111 120.08V40.739C133.68 33.2124 152.4 27 180.001 27C207.601 27 226.316 33.2109 249 40.739V120.08C249 137.519 235.138 152.365 235.138 152.365C229.351 158.483 221.724 163.978 214.5 168.227ZM140.576 139.906C145.034 144.661 150.154 148.757 155.778 152.069C163.598 156.844 171.747 160.6 180.011 164.391C188.512 161.158 196.429 156.823 204.232 152.058C209.821 148.639 215.028 144.834 219.425 139.895C222.302 136.697 228.3 130.024 228.3 119.152V56.8826C212.655 51.5422 200.7 47.6087 180.001 47.6087C159.3 47.6087 147.346 51.5422 131.7 56.8826V119.162C131.7 130.006 137.679 136.675 140.561 139.89L140.576 139.906Z" fill="#276EF1"/>
<path d="M180 61C196.914 61 214 67.2493 214 67.2493V119.727C214 125.949 210.452 129.711 208.338 132.239C206.217 134.767 203.676 137.309 197 141.627C190.33 145.944 180 151 180 151C180 151 169.67 145.938 163 141.62C156.33 137.296 153.776 134.761 151.663 132.233C149.548 129.725 146 125.949 146 119.741V67.263C146 67.263 163.086 61 180 61Z" fill="#276EF1"/>
</g>
<defs>
<clipPath id="clip0">
<rect width="360" height="211" fill="white"/>
</clipPath>
</defs>
</svg>
